<svg id="visual" viewBox="0 0 1920 1080" width="1920" height="1080" xmlns="http://www.w3.org/2000/svg" xmlns:xlink="http://www.w3.org/1999/xlink" version="1.1"><rect x="0" y="0" width="1920" height="1080" fill="#001220"></rect><defs><linearGradient id="grad1_0" x1="43.8%" y1="0%" x2="100%" y2="100%"><stop offset="14.444444444444446%" stop-color="#001220" stop-opacity="1"></stop><stop offset="85.55555555555554%" stop-color="#001220" stop-opacity="1"></stop></linearGradient></defs><defs><linearGradient id="grad2_0" x1="0%" y1="0%" x2="56.3%" y2="100%"><stop offset="14.444444444444446%" stop-color="#001220" stop-opacity="1"></stop><stop offset="85.55555555555554%" stop-color="#001220" stop-opacity="1"></stop></linearGradient></defs><g transform="translate(1920, 0)"><path d="M0 702C-55.8 696.1 -111.6 690.2 -149.3 654.2C-187 618.1 -206.6 552 -259.9 539.7C-313.2 527.4 -400.1 568.9 -432.7 542.6C-465.3 516.2 -443.6 422 -468.3 373.5C-493 325 -564 322.2 -609.1 293.3C-654.1 264.4 -673.2 209.4 -684.4 156.2C-695.6 103 -698.8 51.5 -702 0L0 0Z" fill="#FBAE3C"></path></g><g transform="translate(0, 1080)"><path d="M0 -702C54 -701.9 108 -701.8 156.2 -684.4C204.5 -667 247 -632.4 290.3 -602.7C333.5 -573.1 377.6 -548.5 410.3 -514.4C442.9 -480.4 464.2 -437 504.3 -402.2C544.3 -367.3 603.1 -341.1 616.3 -296.8C629.4 -252.5 596.8 -190.2 603.5 -137.7C610.2 -85.3 656.1 -42.6 702 0L0 0Z" fill="#FBAE3C"></path></g></svg>